<svg height="512pt" viewBox="0 0 512 512.01686" width="512pt" xmlns="http://www.w3.org/2000/svg"><path d="m338.722656 338.996094c8.402344-21.222656 7.210938-45.046875-3.265625-65.324219-17.65625-35.3125-8.828125-83.863281-8.828125-83.863281h-300.136718s8.828124 48.550781-8.828126 83.863281c-15.714843 31.425781-10.417968 69.914063 15.890626 90.394531l293.074218 25.34375zm0 0" fill="#7f5b53"/><path d="m352.316406 373.160156-11.652344 138.0625c-1.679687.542969-3.441406.808594-5.207031.792969h-317.792969c-9.738281-.027344-17.6289058-7.914063-17.6562495-17.65625v-52.964844c.0234375-48.945312 33.5468755-91.519531 81.1249995-103.015625h190.855469c13.199219 3.191406 25.664063 8.886719 36.722657 16.769532zm0 0" fill="#35495e"/><path d="m128.007812 338.378906h97.105469l-48.554687 58.878906zm0 0" fill="#bdc3c7"/><path d="m203.042969 288.941406v68.59375l-26.484375 39.722656-26.480469-39.722656v-68.59375zm0 0" fill="#fdd7ad"/><path d="m203.042969 288.941406v13.242188c-17.511719 3.179687-35.453125 3.179687-52.964844 0v-13.242188zm0 0" fill="#f09372"/><path d="m326.539062 163.328125c.089844-1.503906.089844-16.246094.089844-17.65625-1.242187-81.652344-68.414062-146.851563-150.070312-145.65625-81.652344-1.195313-148.824219 64.003906-150.066406 145.65625 0 1.410156 0 16.152344.085937 17.65625zm0 0" fill="#af8066"/><path d="m308.355469 158.914062h18.273437c9.722656.070313 17.585938 7.933594 17.65625 17.652344-.03125 9.742188-7.917968 17.628906-17.65625 17.65625h-300.136718c-9.738282-.027344-17.628907-7.914062-17.65625-17.65625.070312-9.71875 7.933593-17.582031 17.65625-17.652344zm0 0" fill="#f09372"/><path d="m48.296875 140.199219v.085937c-.796875 3.003906-1.589844 6.003906-2.207031 9.09375-.53125 3.179688-1.0625 6.355469-1.324219 9.535156-.433594 3.777344-.636719 7.582032-.621094 11.386719.015625 4.1875.25 8.371094.707031 12.535157.441407 3.707031 1.058594 7.328124 1.855469 10.945312 12.191407 49.617188 52.914063 87.109375 103.371094 95.160156 17.511719 3.179688 35.453125 3.179688 52.964844 0 50.304687-8.109375 90.953125-45.390625 103.371093-94.804687.792969-3.710938 1.414063-7.503907 1.855469-11.300781.457031-4.164063.691407-8.347657.703125-12.535157.019532-3.804687-.1875-7.609375-.617187-11.386719-.265625-3.179687-.792969-6.355468-1.324219-9.535156-.527344-2.558594-1.148438-5.121094-1.851562-7.679687-5.835938-12.929688-13.472657-24.96875-22.6875-35.753907-105.933594 8.828126-141.242188-52.964843-141.242188-52.964843s-12.359375 43.078125-88.277344 61.792969l-4.675781 25.511718" fill="#fdd7ad"/><path d="m406.085938 361.945312c-2.710938 0-5.269532-1.25-6.941407-3.382812-1.675781-2.128906-2.277343-4.914062-1.636719-7.546875 3.804688-22.410156-2.0625-45.378906-16.148437-63.21875-1.890625-2.523437-2.292969-5.867187-1.054687-8.765625 1.238281-2.898438 3.929687-4.917969 7.0625-5.296875 3.128906-.375 6.226562.945313 8.117187 3.46875 17.253906 22.078125 24.230469 50.492187 19.15625 78.050781-.976563 3.929688-4.503906 6.691406-8.554687 6.691406zm0 0" fill="#7f5b53"/><path d="m185.386719 405.46875v106.546875h-17.652344v-106.546875c.332031-4.628906 4.183594-8.214844 8.824219-8.214844s8.496094 3.585938 8.828125 8.214844zm0 0" fill="#2c3e50"/><path d="m220.699219 476.707031c0 4.875-3.953125 8.828125-8.828125 8.828125s-8.828125-3.953125-8.828125-8.828125 3.953125-8.828125 8.828125-8.828125 8.828125 3.953125 8.828125 8.828125zm0 0" fill="#2c3e50"/><path d="m176.558594 397.257812-27.277344 34.09375c-1.816406 2.269532-4.636719 3.5-7.539062 3.289063-2.902344-.214844-5.511719-1.84375-6.976563-4.355469l-50.15625-85.976562c-1.292969-2.21875-1.554687-4.890625-.722656-7.320313.835937-2.425781 2.6875-4.371093 5.070312-5.324219l28.015625-11.207031c3.882813-1.539062 8.308594-.136719 10.59375 3.355469l22.511719 33.722656zm0 0" fill="#ecf0f1"/><path d="m268.503906 344.308594-50.152344 85.980468c-1.464843 2.511719-4.074218 4.140626-6.976562 4.355469-2.902344.210938-5.722656-1.019531-7.542969-3.289062l-27.273437-34.097657 26.484375-39.722656 22.511719-33.722656c2.285156-3.492188 6.710937-4.894531 10.589843-3.355469l28.015625 11.207031c2.382813.953126 4.234375 2.898438 5.070313 5.324219.832031 2.429688.570312 5.101563-.726563 7.320313zm0 0" fill="#ecf0f1"/><path d="m361.941406 370.773438c0 4.875-3.953125 8.828124-8.828125 8.828124s-8.828125-3.953124-8.828125-8.828124 3.953125-8.828126 8.828125-8.828126 8.828125 3.953126 8.828125 8.828126zm0 0"/><path d="m412.433594 351.882812c-2.03125.777344-4.183594 1.195313-6.355469 1.238282-12.710937 0-20.921875-17.65625-46.34375-17.65625-25.335937 0-50.761719 10.417968-50.761719 72.738281 0 62.234375 38.046875 103.8125 63.472656 103.8125 25.335938 0 25.335938-10.414063 38.046876-10.414063 12.710937 0 12.710937 10.414063 38.046874 10.414063 25.421876 0 63.46875-41.578125 63.46875-103.8125 0-56.496094-20.832031-70.355469-43.609374-72.386719" fill="#e64c3c"/><path d="m461.125 345.273438c-20.839844 16.332031-54.988281 7.554687-54.988281 7.554687s-.363281-35.257813 20.472656-51.589844c20.839844-16.332031 54.988281-7.554687 54.988281-7.554687s.363282 35.257812-20.472656 51.589844zm0 0" fill="#4fba6f"/><path d="m353.121094 467.878906c-3.347656.003906-6.410156-1.886718-7.90625-4.878906-9.644532-19.304688-9.757813-55.386719-9.757813-56.914062 0-4.875 3.953125-8.828126 8.828125-8.828126s8.828125 3.953126 8.828125 8.828126c-.257812 16.675781 2.414063 33.265624 7.894531 49.015624 1.367188 2.734376 1.222657 5.984376-.382812 8.585938s-4.445312 4.1875-7.503906 4.191406zm0 0" fill="#fb7b76"/><path d="m88.285156 141.257812h61.792969c4.875 0 8.828125 3.953126 8.828125 8.828126v8.828124c0 19.5-15.808594 35.308594-35.3125 35.308594h-8.828125c-19.5 0-35.308594-15.808594-35.308594-35.308594v-8.828124c0-4.875 3.953125-8.828126 8.828125-8.828126zm0 0" fill="#9fc9d3"/><path d="m203.042969 141.257812h61.792969c4.875 0 8.828124 3.953126 8.828124 8.828126v8.828124c0 19.5-15.808593 35.308594-35.3125 35.308594h-8.824218c-19.503906 0-35.3125-15.808594-35.3125-35.308594v-8.828124c0-4.875 3.953125-8.828126 8.828125-8.828126zm0 0" fill="#9fc9d3"/><g fill="#35495e"><path d="m196.171875 153.515625c-2.183594.003906-4.292969-.808594-5.910156-2.273437-7.632813-7.292969-19.648438-7.292969-27.285157 0-3.628906 3.175781-9.132812 2.851562-12.363281-.730469-3.230469-3.578125-2.992187-9.089844.535157-12.375 14.339843-13.386719 36.59375-13.386719 50.9375 0 2.707031 2.449219 3.632812 6.3125 2.320312 9.722656-1.308594 3.40625-4.585938 5.65625-8.238281 5.65625zm0 0"/><path d="m85.546875 151.761719-37.515625 14.125c-.976562.425781-2.027344.636719-3.089844.617187h-.707031v-.085937c.089844-2.5625.265625-5.035157.53125-7.503907.261719-3.179687.792969-6.355468 1.324219-9.535156.09375-.601562.242187-1.191406.441406-1.765625l32.835938-12.445312c4.566406-1.648438 9.609374.691406 11.300781 5.238281 1.695312 4.550781-.589844 9.613281-5.121094 11.355469zm0 0"/><path d="m308.886719 166.417969v.085937h-.707031c-1.0625.019532-2.117188-.191406-3.089844-.617187l-37.515625-14.125c-4.53125-1.742188-6.816407-6.804688-5.125-11.355469 1.695312-4.546875 6.734375-6.886719 11.300781-5.238281l32.839844 12.445312c.199218.574219.347656 1.164063.441406 1.765625.53125 3.179688 1.058594 6.355469 1.324219 9.535156.265625 2.46875.441406 4.941407.53125 7.503907zm0 0"/></g><path d="m158.90625 156.089844v2.824218c0 9.363282-3.71875 18.347657-10.339844 24.96875-6.625 6.625-15.605468 10.34375-24.972656 10.339844h-8.828125c-5.335937.050782-10.605469-1.191406-15.359375-3.617187 11.253906-22.269531 34.582031-35.800781 59.5-34.515625zm0 0" fill="#67b9cc"/><path d="m273.664062 156.617188v2.296874c.003907 9.363282-3.71875 18.347657-10.339843 24.96875-6.621094 6.625-15.605469 10.34375-24.972657 10.339844h-8.824218c-7.8125.03125-15.40625-2.582031-21.539063-7.414062 9.972657-16.332032 29.304688-33.546875 65.675781-30.191406zm0 0" fill="#67b9cc"/><path d="m123.59375 203.050781h-8.828125c-24.363281-.027343-44.109375-19.773437-44.136719-44.136719v-8.828124c.011719-9.746094 7.910156-17.644532 17.65625-17.65625h61.792969c9.746094.011718 17.644531 7.910156 17.65625 17.65625v8.828124c-.03125 24.363282-19.773437 44.109376-44.140625 44.136719zm-35.308594-52.964843v8.828124c.015625 14.617188 11.863282 26.464844 26.480469 26.480469h8.828125c14.621094-.015625 26.46875-11.863281 26.484375-26.480469v-8.828124zm0 0" fill="#35495e"/><path d="m238.351562 203.050781h-8.824218c-24.367188-.027343-44.109375-19.773437-44.140625-44.136719v-8.828124c.011719-9.746094 7.910156-17.644532 17.65625-17.65625h61.792969c9.746093.011718 17.644531 7.910156 17.65625 17.65625v8.828124c-.03125 24.363282-19.773438 44.109376-44.140626 44.136719zm-35.308593-52.964843v8.828124c.015625 14.617188 11.863281 26.464844 26.484375 26.480469h8.824218c14.621094-.015625 26.46875-11.863281 26.484376-26.480469v-8.828124zm0 0" fill="#35495e"/><path d="m361.941406 370.773438c0 4.875-3.953125 8.828124-8.828125 8.828124s-8.828125-3.953124-8.828125-8.828124 3.953125-8.828126 8.828125-8.828126 8.828125 3.953126 8.828125 8.828126zm0 0" fill="#fb7b76"/></svg>